<?xml version="1.0" encoding="utf-8"?>
<!-- Generator: Adobe Illustrator 17.0.0, SVG Export Plug-In . SVG Version: 6.00 Build 0)  -->
<!DOCTYPE svg PUBLIC "-//W3C//DTD SVG 1.1//EN" "http://www.w3.org/Graphics/SVG/1.1/DTD/svg11.dtd">
<svg version="1.1" id="圖層_1" xmlns="http://www.w3.org/2000/svg" xmlns:xlink="http://www.w3.org/1999/xlink" x="0px" y="0px"
	 width="583.375px" height="583.374px" viewBox="5.953 129.258 583.375 583.374"
	 enable-background="new 5.953 129.258 583.375 583.374" xml:space="preserve">
<g>
	<path fill="#FFFFFF" d="M532.597,129.258H62.683c-31.312,0-56.73,25.418-56.73,56.73v469.914c0,31.312,25.418,56.73,56.73,56.73
		h245.136V465.531h-83.161v-96.316h83.161v-71.017c0-82.446,50.301-127.33,123.818-127.33c35.241,0,65.481,2.619,74.291,3.81v86.137
		h-50.956c-40.003,0-47.741,18.989-47.741,46.908v61.492h95.364l-12.441,96.316h-82.922v247.101h125.366
		c31.312,0,56.73-25.418,56.73-56.73V185.988C589.327,154.676,563.909,129.258,532.597,129.258z"/>
</g>
</svg>
