<?xml version="1.0" encoding="utf-8"?>
<!-- Generator: Adobe Illustrator 17.0.0, SVG Export Plug-In . SVG Version: 6.00 Build 0)  -->
<!DOCTYPE svg PUBLIC "-//W3C//DTD SVG 1.1//EN" "http://www.w3.org/Graphics/SVG/1.1/DTD/svg11.dtd">
<svg version="1.1" id="圖層_4" xmlns="http://www.w3.org/2000/svg" xmlns:xlink="http://www.w3.org/1999/xlink" x="0px" y="0px"
	 width="556.012px" height="200.051px" viewBox="19.634 334.131 556.012 200.051"
	 enable-background="new 19.634 334.131 556.012 200.051" xml:space="preserve">
<path fill="#FFFFFF" d="M410.902,342.957c0-5.884-5.884-8.826-8.826-8.826h-29.419c-5.884,0-8.826,5.884-8.826,8.826v105.908
	L281.46,340.016h-29.419c-5.884,0-8.826,5.884-8.826,8.826v176.513c0,5.884,5.884,8.826,8.826,8.826h29.419
	c5.884,0,8.826-5.884,8.826-8.826V419.447l82.371,108.849c2.941,2.941,2.941,2.941,2.941,2.941c2.941,0,2.941,0,2.941,0h23.536
	c5.884,0,8.826-5.884,8.826-8.826v-0.001V342.957z"/>
<path fill="#FFFFFF" d="M210.856,337.074h-29.419c-5.884,0-8.826,5.884-8.826,8.826v176.511c0,5.884,5.884,8.826,8.826,8.826h29.419
	c5.884,0,8.826-5.884,8.826-8.826V345.9C219.682,340.016,213.797,337.074,210.856,337.074z"/>
<path fill="#FFFFFF" d="M143.193,484.168H66.705V342.959c0-2.943-5.884-5.884-8.826-5.884H28.46c-5.884,0-8.826,5.884-8.826,8.826
	v176.511c0,2.943,2.941,5.884,2.941,5.884c2.943,2.941,2.943,2.941,5.884,2.941h114.732c5.884,0,8.826-5.884,8.826-8.826
	l0.001-29.418C152.019,487.11,146.135,484.168,143.193,484.168z"/>
<path fill="#FFFFFF" d="M566.82,410.621h-79.43v-29.419h76.488c5.884,0,8.826-5.884,8.826-8.826v-23.535
	c0-5.884-5.884-8.826-8.826-8.826h-111.79c-2.943,0-5.884,2.941-5.884,2.941c-2.942,2.943-2.942,2.943-2.942,5.884v176.514
	c0,2.943,2.942,5.884,2.942,5.884c2.943,2.941,2.943,2.941,5.884,2.941H566.82c5.884,0,8.826-5.884,8.826-8.826v-29.419
	c0-5.884-5.884-8.826-8.826-8.826h-76.488v-29.419h76.488c5.884,0,8.826-5.884,8.826-8.826v-29.419
	C575.646,413.563,569.761,410.621,566.82,410.621z"/>
</svg>
