<?xml version="1.0" encoding="utf-8"?>
<!-- Generator: Adobe Illustrator 17.0.0, SVG Export Plug-In . SVG Version: 6.00 Build 0)  -->
<!DOCTYPE svg PUBLIC "-//W3C//DTD SVG 1.1//EN" "http://www.w3.org/Graphics/SVG/1.1/DTD/svg11.dtd">
<svg version="1.1" id="圖層_1" xmlns="http://www.w3.org/2000/svg" xmlns:xlink="http://www.w3.org/1999/xlink" x="0px" y="0px"
	 width="538.411px" height="557.972px" viewBox="0 0 538.411 557.972" enable-background="new 0 0 538.411 557.972"
	 xml:space="preserve">
<g>
	<path fill="#FFFFFF" d="M281.529,227.836c0,1.043-0.487,1.563-1.463,1.563h-17.854c-0.976,0-1.462-0.588-1.462-1.766
		c0-3.396,0.126-8.489,0.378-15.281c0.252-6.792,0.378-11.886,0.378-15.283c0-0.975-0.151-1.496-0.454-1.563
		c-0.371,0.202-2.623,5.397-6.759,15.584c-2.421,5.985-4.842,11.954-7.263,17.905c-0.336,0.772-0.756,1.227-1.261,1.361
		c-0.169,0.033-0.841,0.051-2.018,0.051c-1.749,0-2.791-0.337-3.127-1.009c-1.816-3.698-4.204-9.078-7.162-16.14
		c-3.161-7.464-5.531-12.861-7.111-16.19c-0.068-0.167-0.219-0.353-0.454-0.555c-0.236,0.303-0.354,0.791-0.354,1.463
		c0,3.295,0.084,8.238,0.252,14.828c0.168,6.591,0.252,11.533,0.252,14.828c0,1.178-0.471,1.766-1.412,1.766h-16.846
		c-0.673,0-1.084-0.108-1.235-0.328c-0.151-0.218-0.227-0.597-0.227-1.135c0-3.664,0.176-9.171,0.53-16.518
		c0.353-7.346,0.529-12.853,0.529-16.518c0-3.9-0.168-11.213-0.504-21.94c-0.034-2.791-0.185-6.942-0.454-12.458l-0.051-0.857
		c-0.034-0.672,0.672-1.009,2.119-1.009c1.849,0,4.623-0.058,8.322-0.176c3.698-0.118,6.472-0.177,8.322-0.177
		c0.37,0,0.891,0.706,1.563,2.119l14.728,32.329c1.042,2.186,1.917,3.278,2.623,3.278c0.37,0,1.16-1.261,2.371-3.783
		c3.396-7.061,8.423-17.703,15.08-31.926c0.571-1.312,1.193-1.967,1.866-1.967c0.976,0,2.446,0.05,4.414,0.151
		c1.967,0.101,3.454,0.151,4.463,0.151c0.84,0,2.126-0.083,3.858-0.252c1.731-0.168,3.018-0.252,3.858-0.252
		c1.009,0,1.514,0.404,1.514,1.21c0,3.968-0.144,9.895-0.429,17.779c-0.286,7.885-0.429,13.812-0.429,17.779
		c0,3.665,0.15,9.163,0.453,16.492C281.378,218.725,281.529,224.205,281.529,227.836z"/>
	<path fill="#FFFFFF" d="M315.624,202.013c0,8.406-0.689,14.912-2.067,19.519c-2.489,8.171-6.49,14.576-12.004,19.216
		c-0.64,0.571-1.16,0.857-1.563,0.857c-0.37,0-0.74-0.219-1.109-0.655c-1.178-1.379-3.01-3.447-5.498-6.203
		c-1.446-1.211-3.581-3.095-6.405-5.649c-0.37-0.403-0.555-0.739-0.555-1.009c0-0.303,0.185-0.622,0.555-0.958
		c2.488-2.186,4.068-3.682,4.741-4.489c1.312-1.58,2.32-3.563,3.026-5.951c0.94-3.261,1.412-8.624,1.412-16.089
		c0-17.282-0.605-30.682-1.816-40.197c-0.067-0.336-0.101-0.588-0.101-0.757c0-0.605,0.537-0.908,1.614-0.908
		c1.075,0,2.664,0.05,4.766,0.151c2.102,0.101,3.69,0.151,4.767,0.151c1.009,0,2.505-0.051,4.488-0.151
		c1.984-0.101,3.48-0.151,4.489-0.151c0.975,0,1.463,0.438,1.463,1.312c0,4.64-0.034,11.625-0.102,20.956
		C315.657,190.337,315.624,197.34,315.624,202.013z"/>
</g>
<g>
	<g>
		<g>
			<g>
				<path fill="#FFFFFF" d="M259.707,360.4c-92.385,0-167.56-74.557-167.56-166.197c0-91.778,75.175-166.451,167.56-166.451
					c92.414,0,167.589,74.673,167.589,166.451C427.295,285.843,352.12,360.4,259.707,360.4z M259.707,33.094
					c-89.384,0-162.179,72.297-162.179,161.108c0,88.763,72.795,160.851,162.179,160.851c89.416,0,162.246-72.088,162.246-160.851
					C421.953,105.391,349.122,33.094,259.707,33.094z"/>
			</g>
		</g>
		<g>
			<g>
				<path fill="#FFFFFF" d="M265.463,30.407c0,14.068-11.378,25.396-25.312,25.396c-13.997,0-25.343-11.328-25.343-25.396
					c0-14.036,11.346-25.346,25.343-25.346C254.085,5.06,265.463,16.37,265.463,30.407z"/>
			</g>
		</g>
		<g>
			<g>
				<path fill="#FFFFFF" d="M446.264,161.356c0,13.97-11.314,25.347-25.311,25.347c-14.036,0-25.347-11.378-25.347-25.347
					c0-14.05,11.311-25.431,25.347-25.431C434.951,135.925,446.264,147.306,446.264,161.356z"/>
			</g>
		</g>
		<g>
			<g>
				<path fill="#FFFFFF" d="M246.186,354.57c0,13.966-11.31,25.276-25.276,25.276c-14.068,0-25.378-11.31-25.378-25.276
					s11.31-25.329,25.378-25.329C234.876,329.241,246.186,340.604,246.186,354.57z"/>
			</g>
		</g>
		<g>
			<g>
				<path fill="#FFFFFF" d="M374.638,64.062c0,8.708-7.069,15.777-15.759,15.777c-8.687,0-15.725-7.069-15.725-15.777
					c0-8.726,7.038-15.812,15.725-15.812C367.57,48.25,374.638,55.337,374.638,64.062z"/>
			</g>
		</g>
		<g>
			<g>
				<path fill="#FFFFFF" d="M363.879,331.932c0,8.743-7.065,15.741-15.791,15.741c-8.726,0-15.724-6.999-15.724-15.741
					c0-8.708,6.999-15.742,15.724-15.742C356.814,316.19,363.879,323.224,363.879,331.932z"/>
			</g>
		</g>
		<g>
			<g>
				<path fill="#FFFFFF" d="M126.392,121.235c0,8.743-7.07,15.795-15.76,15.795c-8.726,0-15.759-7.052-15.759-15.795
					c0-8.725,7.033-15.759,15.759-15.759C119.322,105.476,126.392,112.51,126.392,121.235z"/>
			</g>
		</g>
		<g>
			<g>
				<path fill="#FFFFFF" d="M437.091,241.704c0,10.71-8.69,19.347-19.414,19.347c-10.657,0-19.379-8.637-19.379-19.347
					c0-10.689,8.722-19.326,19.379-19.326C428.401,222.378,437.091,231.015,437.091,241.704z"/>
			</g>
		</g>
		<g>
			<g>
				<path fill="#FFFFFF" d="M140.22,282.397c0,10.671-8.726,19.361-19.45,19.361c-10.692,0-19.277-8.69-19.277-19.361
					c0-10.76,8.585-19.38,19.277-19.38C131.494,263.018,140.22,271.638,140.22,282.397z"/>
			</g>
		</g>
	</g>
</g>
<path fill="#FFFFFF" d="M258.726,94.407c55.086,0,99.901,44.815,99.901,99.901s-44.815,99.901-99.901,99.901
	s-99.901-44.815-99.901-99.901S203.64,94.407,258.726,94.407 M258.726,88.407c-58.487,0-105.901,47.413-105.901,105.901
	s47.413,105.901,105.901,105.901s105.901-47.413,105.901-105.901S317.213,88.407,258.726,88.407L258.726,88.407z"/>
<g>
	<g>
		<path fill="#FFFFFF" d="M34.632,476.319h-7.896v-5.279H14.138v7.363h-7.94v-66.139h28.434V476.319z M26.736,437.683v-17.611
			H14.138v17.611H26.736z M26.736,463.411v-18.187H14.138v18.187H26.736z M80.809,477.827c0,2.988-0.443,5.129-1.331,6.432
			c-0.887,1.301-2.04,2.144-3.46,2.529c-1.42,0.383-4.142,0.576-8.162,0.576c-2.633,0-5.162-0.06-7.585-0.178l-2.75-7.985
			c4.879,0.119,8.916,0.178,12.11,0.178c1.98,0,2.972-0.901,2.972-2.706v-16.989H51.444c-1.302,12.037-4.569,21.514-9.803,28.434
			l-6.831-4.746c5.944-8.545,8.916-19.784,8.916-33.713v-39.479h37.084V477.827z M72.603,430.585v-12.509H51.931v12.509H72.603z
			 M72.603,451.966v-13.352H51.931v13.352H72.603z"/>
		<path fill="#FFFFFF" d="M140.648,476.851c-8.577,2.9-23.377,6.166-44.403,9.803l-2.262-7.629
			c6.416-0.915,12.804-1.98,19.163-3.194v-13.973H96.778v-7.541h16.368v-11.711c-4.91,0.71-9.82,1.258-14.727,1.641l-1.641-7.275
			c5.174-3.133,9.817-9.462,13.928-18.986H96.157v-7.629h44.492v7.629H119.49c-3.017,6.742-6.609,12.703-10.779,17.876
			c7.57-1.153,13.441-2.143,17.611-2.972c-0.621-1.242-2.204-3.696-4.746-7.363l7.186-3.371c5.5,7.452,9.227,14.3,11.178,20.538
			l-7.363,3.282l-2.351-6.21l-9.005,1.553v12.997h16.28v7.541h-16.28v12.154c7.541-1.508,13.987-3.105,19.34-4.791L140.648,476.851z
			 M164.203,441.143c6.358,8.162,9.537,16.207,9.537,24.131c0,3.224-0.548,5.805-1.641,7.741c-1.095,1.938-2.617,3.305-4.569,4.103
			c-1.952,0.798-5.367,1.198-10.247,1.198L154,469.843c2.424,0.208,4.553,0.311,6.388,0.311c1.744,0,3.038-0.294,3.881-0.887
			c0.843-0.591,1.264-2.188,1.264-4.791c0-7.48-3.416-15.021-10.247-22.623c2.839-5.47,5.839-13.336,9.005-23.599h-12.465v69.199
			h-7.807v-77.095h28.523v7.896C171.093,424.021,168.312,431.65,164.203,441.143z"/>
		<path fill="#FFFFFF" d="M265.651,435.775l-3.815,7.275c-2.337-0.472-4.968-1.226-7.896-2.263v34.156h-38.326l3.903,4.525
			c-8.547,3.932-18.63,6.845-30.252,8.739l-3.904-7.275c8.634-1.034,16.901-3.031,24.796-5.988h-13.352V440.61h17.167l-3.46-5.012
			c10.616-2.69,18.526-7.408,23.731-14.151l8.251,1.819c-0.887,1.627-1.553,2.648-1.996,3.061
			C246.946,430.497,255.329,433.646,265.651,435.775z M212.509,433.247h-26.438v-7.452h26.438V433.247z M211.711,418.786h-24.441
			v-7.275h24.441V418.786z M245.778,450.236v-3.194h-40.499v3.194H245.778z M245.778,459.507v-3.371h-40.499v3.371H245.778z
			 M245.778,468.956v-3.549h-40.499v3.549H245.778z M264.054,419.806c-2.811,4.023-5.456,7.408-7.94,10.158l-6.875-4.081
			c0.768-0.887,2.395-2.911,4.879-6.077h-28.611c-2.78,3.194-5.442,5.855-7.985,7.985l-6.166-5.279
			c4.702-3.399,9.21-8.545,13.529-15.437l7.452,2.528c-0.266,1.036-0.843,2.101-1.73,3.194h33.446V419.806z M253.053,440.61
			c-6.093-1.98-12.007-4.893-17.743-8.739c-3.786,3.432-8.71,6.344-14.771,8.739H253.053z M265.118,481.553l-4.347,7.008
			c-7.926-2.545-16.798-4.391-26.615-5.545l4.169-6.831C247.907,477.015,256.837,478.803,265.118,481.553z"/>
		<path fill="#FFFFFF" d="M306.106,423.133h-29.454v-7.319h11.622c-0.474-1.39-1.435-3.267-2.883-5.634l7.985-3.017
			c1.597,2.988,2.928,5.872,3.992,8.65h8.739V423.133z M304.11,436.618h-25.285v-7.275h25.285V436.618z M304.11,449.882h-25.285
			v-7.186h25.285V449.882z M304.198,485.279h-7.985v-4.081h-9.537v6.255h-7.852v-31.495h25.373V485.279z M296.214,473.746v-10.247
			h-9.537v10.247H296.214z M356.807,466.205c-0.415,4.702-1.236,9.013-2.462,12.93c-1.228,3.918-2.412,6.365-3.549,7.342
			c-1.139,0.976-2.447,1.463-3.926,1.463c-1.805,0-3.365-0.688-4.68-2.063c-1.316-1.375-2.573-5.434-3.77-12.176
			c-1.198-6.742-1.797-12.804-1.797-18.187v-37.882h-12.287v24.486h9.759v7.851h-9.759v37.572h-7.807V449.97h-8.428v-7.851h8.428
			v-24.486h-7.363v-7.63h35.265v47.33c0,7.039,0.976,13.84,2.928,20.405c1.123-4.139,1.847-9.462,2.174-15.969L356.807,466.205z"/>
		<path fill="#FFFFFF" d="M404.937,414.262c-4.142,1.391-8.622,2.47-13.441,3.238v11.755h11.445v7.63h-11.445v2.528
			c4.76,4.968,8.811,10.114,12.154,15.437l-5.633,5.988c-2.16-4.317-4.333-7.999-6.521-11.045v37.572H383.6V451.39
			c-4.23,8.25-8.325,14.284-12.287,18.098l-4.613-7.186c6.327-6.388,11.813-14.86,16.457-25.417h-15.57v-7.63H383.6v-10.468
			c-3.845,0.593-7.882,1.02-12.11,1.286l-3.416-7.363c11.561-0.56,22.548-2.321,32.959-5.279L404.937,414.262z M446.722,464.475
			l-8.428,1.287v21.78h-8.029v-20.76l-27.325,3.682l-0.71-7.985l28.035-3.815v-50.302h8.029V457.6l8.162-1.02L446.722,464.475z
			 M426.273,448.329l-5.456,6.077c-3.815-4.88-9.479-10.084-16.989-15.614l5.279-5.9
			C416.439,438.304,422.162,443.449,426.273,448.329z M427.559,426.327l-5.456,5.9c-5.087-5.737-10.44-10.705-16.058-14.905
			l5.634-5.723C417.74,416.302,423.035,421.212,427.559,426.327z"/>
		<path fill="#FFFFFF" d="M487.798,448.684c-3.432,1.597-6.581,2.928-9.448,3.992v26.349c0,2.603-0.637,4.613-1.907,6.033
			c-1.272,1.42-3.402,2.151-6.388,2.196c-2.988,0.045-5.561,0.022-7.718-0.066l-2.528-7.896c3.194,0.119,5.944,0.178,8.25,0.178
			c0.56,0,1.101-0.258,1.619-0.776c0.516-0.516,0.776-1.101,0.776-1.752v-21.248c-3.343,1.183-6.803,2.234-10.38,3.149l-2.174-7.452
			c5.678-1.714,9.862-3.105,12.554-4.17v-16.812h-11.533v-7.718h11.533v-14.727h7.896v14.727h8.339v7.718h-8.339v13.662
			c2.365-0.768,4.968-1.863,7.807-3.283L487.798,448.684z M538.411,481.465l-4.657,6.831c-8.578-3.757-15.659-7.94-21.248-12.554
			c-6.507,4.88-14.283,9.064-23.333,12.554l-4.48-7.275c8.753-2.956,16.117-6.535,22.09-10.735
			c-5.057-5.559-9.36-13.366-12.908-23.421h-3.105v-7.63h18.009v-11.799h-19.252v-7.63h19.252v-11.533h8.162v11.533h19.074v7.63
			h-19.074v11.799h16.812v7.63c-4.23,10.174-9.287,18.04-15.171,23.599C523.579,474.605,530.189,478.271,538.411,481.465z
			 M524.837,446.865h-22.312c2.246,6.773,5.722,12.836,10.424,18.187C517.887,460.084,521.849,454.023,524.837,446.865z"/>
	</g>
	<g>
		<path fill="#FFFFFF" d="M37.116,507.953l-8.033,26.76h-4.186l-5.613-19.381c-0.21-0.726-0.347-1.532-0.411-2.419h-0.097
			c-0.016,0.452-0.202,1.242-0.556,2.371l-6.073,19.429H8.129L0,507.953h4.234l5.662,20.3c0.177,0.645,0.298,1.435,0.363,2.371
			h0.194c0.064-0.742,0.226-1.549,0.484-2.42l6.267-20.252h3.678l5.637,20.349c0.145,0.548,0.275,1.339,0.387,2.371h0.218
			c0.016-0.661,0.161-1.452,0.436-2.371l5.565-20.349H37.116z"/>
		<path fill="#FFFFFF" d="M79.478,507.953l-8.033,26.76H67.26l-5.613-19.381c-0.21-0.726-0.347-1.532-0.411-2.419h-0.097
			c-0.016,0.452-0.201,1.242-0.556,2.371l-6.073,19.429h-4.017l-8.129-26.76h4.234l5.661,20.3c0.178,0.645,0.299,1.435,0.363,2.371
			h0.194c0.064-0.742,0.226-1.549,0.484-2.42l6.267-20.252h3.678l5.637,20.349c0.145,0.548,0.274,1.339,0.387,2.371h0.218
			c0.016-0.661,0.161-1.452,0.436-2.371l5.565-20.349H79.478z"/>
		<path fill="#FFFFFF" d="M121.84,507.953l-8.033,26.76h-4.186l-5.613-19.381c-0.21-0.726-0.347-1.532-0.411-2.419H103.5
			c-0.016,0.452-0.202,1.242-0.556,2.371l-6.073,19.429h-4.017l-8.129-26.76h4.234l5.662,20.3c0.178,0.645,0.299,1.435,0.363,2.371
			h0.194c0.064-0.742,0.226-1.549,0.484-2.42l6.267-20.252h3.678l5.637,20.349c0.145,0.548,0.274,1.339,0.387,2.371h0.218
			c0.016-0.661,0.161-1.452,0.436-2.371l5.565-20.349H121.84z"/>
		<path fill="#FFFFFF" d="M126.675,532.463c0-0.79,0.282-1.464,0.847-2.021c0.564-0.556,1.218-0.835,1.96-0.835
			c0.774,0,1.436,0.278,1.984,0.835c0.548,0.557,0.823,1.23,0.823,2.021c0,0.774-0.278,1.44-0.835,1.996
			c-0.557,0.557-1.214,0.835-1.972,0.835c-0.742,0-1.395-0.27-1.96-0.811C126.958,533.943,126.675,533.269,126.675,532.463z"/>
		<path fill="#FFFFFF" d="M181.257,534.713h-4.041v-15.364c0-3.113-0.472-5.323-1.416-6.63c-0.944-1.307-2.504-1.96-4.682-1.96
			c-1.823,0-3.395,0.855-4.718,2.565c-1.323,1.71-1.984,3.742-1.984,6.097v15.291H160.4v-15.921c0-5.355-2.073-8.033-6.218-8.033
			c-1.904,0-3.48,0.815-4.73,2.444c-1.25,1.629-1.875,3.702-1.875,6.218v15.291h-4.041v-26.76h4.041v4.234h0.121
			c1.871-3.242,4.629-4.863,8.275-4.863c1.742,0,3.311,0.512,4.706,1.537c1.395,1.024,2.343,2.375,2.843,4.053
			c1.984-3.726,4.952-5.589,8.904-5.589c5.888,0,8.831,3.638,8.831,10.912V534.713z"/>
		<path fill="#FFFFFF" d="M197.415,533.552c0,4.387-0.883,7.779-2.649,10.174s-4.271,3.593-7.513,3.593
			c-1.194,0-2.371-0.282-3.533-0.847v-3.823c1.307,0.774,2.54,1.161,3.702,1.161c3.984,0,5.976-3.178,5.976-9.533v-26.325h4.017
			V533.552z M192.842,498.323c0-0.758,0.25-1.399,0.75-1.923c0.5-0.524,1.129-0.786,1.887-0.786c0.758,0,1.399,0.266,1.924,0.798
			c0.524,0.532,0.786,1.169,0.786,1.911c0,0.71-0.262,1.331-0.786,1.863c-0.524,0.532-1.166,0.798-1.924,0.798
			c-0.774,0-1.407-0.258-1.899-0.774C193.088,499.694,192.842,499.065,192.842,498.323z"/>
		<path fill="#FFFFFF" d="M223.833,521.381h-14.251v-3.218h14.251V521.381z"/>
		<path fill="#FFFFFF" d="M236.17,509.864c2.63-1.693,5.638-2.54,9.025-2.54c6.21,0,9.315,3.299,9.315,9.896v17.493h-4.041v-4.21
			h-0.145c-1.855,3.226-4.597,4.839-8.227,4.839c-2.645,0-4.73-0.706-6.255-2.117c-1.524-1.411-2.286-3.279-2.286-5.602
			c0-4.952,2.936-7.847,8.807-8.686l8.082-1.162c0-4.646-1.855-6.968-5.565-6.968c-3.242,0-6.146,1.105-8.71,3.315V509.864z
			 M243.889,522.01c-2.291,0.307-3.883,0.859-4.778,1.658c-0.895,0.799-1.343,2.028-1.343,3.69c0,1.339,0.48,2.427,1.439,3.266
			c0.96,0.839,2.214,1.258,3.762,1.258c2.146,0,3.928-0.766,5.347-2.299c1.42-1.532,2.13-3.444,2.13-5.734v-2.71L243.889,522.01z"/>
		<path fill="#FFFFFF" d="M270.669,530.793v16.235h-4.041v-39.076h4.041v4.743h0.121c2.113-3.581,5.202-5.372,9.267-5.372
			c3.403,0,6.089,1.19,8.057,3.569c1.968,2.379,2.952,5.601,2.952,9.666c0,4.452-1.101,8.029-3.303,10.731
			c-2.202,2.702-5.182,4.053-8.94,4.053c-3.484,0-6.161-1.516-8.033-4.549H270.669z M270.669,523.873
			c0,2.242,0.75,4.141,2.251,5.698c1.5,1.556,3.347,2.335,5.541,2.335c2.629,0,4.698-1.016,6.206-3.049
			c1.508-2.032,2.262-4.839,2.262-8.42c0-3.016-0.709-5.383-2.129-7.101c-1.419-1.718-3.307-2.577-5.662-2.577
			c-2.452,0-4.476,0.867-6.073,2.601c-1.597,1.734-2.395,3.948-2.395,6.642V523.873z"/>
		<path fill="#FFFFFF" d="M305.967,530.793v16.235h-4.041v-39.076h4.041v4.743h0.121c2.113-3.581,5.202-5.372,9.267-5.372
			c3.403,0,6.089,1.19,8.057,3.569c1.968,2.379,2.952,5.601,2.952,9.666c0,4.452-1.101,8.029-3.303,10.731s-5.182,4.053-8.94,4.053
			c-3.484,0-6.162-1.516-8.033-4.549H305.967z M305.967,523.873c0,2.242,0.75,4.141,2.25,5.698c1.5,1.556,3.347,2.335,5.541,2.335
			c2.629,0,4.698-1.016,6.206-3.049c1.508-2.032,2.262-4.839,2.262-8.42c0-3.016-0.71-5.383-2.129-7.101
			c-1.42-1.718-3.307-2.577-5.662-2.577c-2.452,0-4.476,0.867-6.073,2.601c-1.597,1.734-2.395,3.948-2.395,6.642V523.873z"/>
		<path fill="#FFFFFF" d="M335.747,532.463c0-0.79,0.282-1.464,0.847-2.021c0.564-0.556,1.218-0.835,1.96-0.835
			c0.774,0,1.435,0.278,1.984,0.835c0.548,0.557,0.823,1.23,0.823,2.021c0,0.774-0.278,1.44-0.835,1.996
			c-0.556,0.557-1.214,0.835-1.972,0.835c-0.742,0-1.395-0.27-1.96-0.811C336.03,533.943,335.747,533.269,335.747,532.463z"/>
		<path fill="#FFFFFF" d="M370.73,533.455c-2.081,1.258-4.501,1.887-7.259,1.887c-3.791,0-6.851-1.238-9.182-3.714
			c-2.331-2.476-3.496-5.698-3.496-9.666c0-4.436,1.258-7.985,3.774-10.646c2.516-2.661,5.863-3.992,10.041-3.992
			c2.307,0,4.363,0.436,6.17,1.307v4.234c-2-1.404-4.138-2.105-6.412-2.105c-2.742,0-5.004,0.988-6.787,2.964
			c-1.782,1.976-2.674,4.601-2.674,7.876c0,3.194,0.831,5.71,2.492,7.549c1.661,1.839,3.895,2.758,6.702,2.758
			c2.371,0,4.581-0.782,6.63-2.347V533.455z"/>
		<path fill="#FFFFFF" d="M379.412,521.672c0-4.452,1.214-7.956,3.642-10.513c2.427-2.556,5.73-3.835,9.908-3.835
			c3.936,0,7.021,1.234,9.255,3.702c2.234,2.468,3.351,5.879,3.351,10.235c0,4.226-1.21,7.63-3.629,10.211s-5.621,3.871-9.606,3.871
			c-3.855,0-6.972-1.242-9.351-3.726C380.602,529.132,379.412,525.817,379.412,521.672z M383.525,521.502
			c0,3.161,0.827,5.686,2.48,7.573c1.653,1.887,3.859,2.831,6.617,2.831c2.807,0,4.98-0.919,6.521-2.758
			c1.541-1.839,2.311-4.42,2.311-7.743c0-3.404-0.762-6.029-2.286-7.876c-1.524-1.847-3.706-2.77-6.545-2.77
			c-2.774,0-4.984,0.956-6.629,2.867C384.348,515.538,383.525,518.163,383.525,521.502z"/>
		<path fill="#FFFFFF" d="M454.172,534.713h-4.041v-15.364c0-3.113-0.472-5.323-1.416-6.63c-0.944-1.307-2.504-1.96-4.682-1.96
			c-1.823,0-3.395,0.855-4.718,2.565c-1.323,1.71-1.984,3.742-1.984,6.097v15.291h-4.017v-15.921c0-5.355-2.073-8.033-6.218-8.033
			c-1.904,0-3.48,0.815-4.73,2.444c-1.25,1.629-1.875,3.702-1.875,6.218v15.291h-4.041v-26.76h4.041v4.234h0.121
			c1.871-3.242,4.629-4.863,8.275-4.863c1.742,0,3.31,0.512,4.706,1.537c1.395,1.024,2.343,2.375,2.843,4.053
			c1.984-3.726,4.952-5.589,8.904-5.589c5.888,0,8.832,3.638,8.832,10.912V534.713z"/>
		<path fill="#FFFFFF" d="M464.838,532.463c0-0.79,0.282-1.464,0.847-2.021c0.564-0.556,1.218-0.835,1.96-0.835
			c0.774,0,1.436,0.278,1.984,0.835c0.548,0.557,0.823,1.23,0.823,2.021c0,0.774-0.278,1.44-0.835,1.996
			c-0.556,0.557-1.214,0.835-1.972,0.835c-0.742,0-1.395-0.27-1.96-0.811C465.121,533.943,464.838,533.269,464.838,532.463z"/>
		<path fill="#FFFFFF" d="M493.869,534.447c-0.984,0.565-2.282,0.847-3.896,0.847c-4.597,0-6.896-2.589-6.896-7.767v-16.09h-4.646
			v-3.484h4.646v-6.581l4.017-1.307v7.888h6.775v3.484h-6.775v15.364c0,1.823,0.306,3.121,0.919,3.896
			c0.613,0.774,1.637,1.161,3.073,1.161c1.113,0,2.04-0.299,2.782-0.895V534.447z"/>
		<path fill="#FFFFFF" d="M537.03,507.953l-8.033,26.76h-4.186l-5.613-19.381c-0.21-0.726-0.347-1.532-0.411-2.419h-0.097
			c-0.016,0.452-0.202,1.242-0.556,2.371l-6.073,19.429h-4.017l-8.129-26.76h4.234l5.661,20.3c0.178,0.645,0.299,1.435,0.363,2.371
			h0.194c0.064-0.742,0.226-1.549,0.484-2.42l6.267-20.252h3.678l5.637,20.349c0.145,0.548,0.274,1.339,0.387,2.371h0.218
			c0.016-0.661,0.161-1.452,0.436-2.371l5.565-20.349H537.03z"/>
	</g>
</g>
<circle display="none" fill="none" stroke="#21529B" stroke-miterlimit="10" cx="306.463" cy="202.552" r="38.842"/>
</svg>
